# xmcd
#
# Track frame offsets:
#	150
#	16385
#	30761
#	46503
#	62582
#	79830
#	96980
#	112189
#	127472
#	143302
#	159524
#	174889
#
# Disc length: 2481 seconds
#
# Revision: 0
# Processed by: cddbd v1.5.2PL0 Copyright (c) Steve Scherf et al.
# Submitted via: audiograbber 1.83.01
#
DISCID=8e09af0c
DTITLE=James Blunt - Some Kind of Trouble
DYEAR=2010
DGENRE=Ballad
TTITLE0=James Blunt - Stay The Night
TTITLE1=James Blunt - Dangerous
TTITLE2=James Blunt - Best Laid Plans
TTITLE3=James Blunt - So Far Gone
TTITLE4=James Blunt - No Tears
TTITLE5=James Blunt - Superstar
TTITLE6=James Blunt - These Are The Words
TTITLE7=James Blunt - Calling Out Your Name
TTITLE8=James Blunt - Heart of Gold
TTITLE9=James Blunt - I'll Be Your Man
TTITLE10=James Blunt - If Time Is All I Have
TTITLE11=James Blunt - Turn Me On
EXTD=
EXTT0=
EXTT1=
EXTT2=
EXTT3=
EXTT4=
EXTT5=
EXTT6=
EXTT7=
EXTT8=
EXTT9=
EXTT10=
EXTT11=
PLAYORDER=
